<svg width="90" height="90" viewBox="0 0 90 90" fill="none" xmlns="http://www.w3.org/2000/svg">
<g clip-path="url(#clip0)">
<path d="M63.871 24.6773V19.4038C63.871 9.2426 56.0622 0.4994 45.9122 0.0214497C35.0753 -0.488844 26.1289 8.14625 26.1289 18.8709V24.6773C26.1289 34.4463 24.5056 40.1571 23.6866 42.4166C23.4424 43.09 23.7351 43.8355 24.3676 44.172C27.2602 45.7108 35.1414 49.6472 42.0967 50.8063H47.9031C54.8585 49.6471 62.7396 45.7106 65.6323 44.172C66.2647 43.8355 66.5572 43.09 66.3133 42.4166C65.4943 40.1571 63.871 34.4463 63.871 24.6773Z" fill="#5C414B"/>
<path d="M26.1289 18.8709V24.6773C26.1289 34.446 24.5058 40.1566 23.6868 42.4163C23.4419 43.0918 23.7409 43.8383 24.3753 44.1755C27.0739 45.6095 34.083 49.112 40.645 50.5237V21.7741L37.7418 18.8709C32.9129 14.042 32.5859 7.94322 32.9051 4.39172C28.7656 7.85321 26.1289 13.0525 26.1289 18.8709Z" fill="#503441"/>
<path d="M52.258 40.6458H37.7419V59.5177H52.258V40.6458Z" fill="#E6AF78"/>
<path d="M65.9583 54.2432L58.2301 50.8065L47.9031 55.1613L46.2077 57.7044C45.633 58.5662 44.3667 58.5662 43.7921 57.7044L42.0966 55.1613L31.9277 50.8065L24.1994 54.2432C20.9751 55.6771 18.9344 58.915 19.0322 62.4424L19.7949 90H70.3629L71.1256 62.4424C71.2231 58.9148 69.1827 55.6771 65.9583 54.2432Z" fill="#27AE60" fill-opacity="0.81"/>
<path d="M28.742 65.3226L21.4495 56.2071C19.8794 57.8555 18.967 60.0765 19.0323 62.4424L19.7951 90H28.742V65.3226Z" fill="#27AE60"/>
<path d="M61.416 65.3226L68.7085 56.2071C70.2786 57.8555 71.1912 60.0765 71.1257 62.4424L70.3629 90H61.416V65.3226Z" fill="#27AE60"/>
<path d="M37.7419 44.8616C39.9629 45.8815 42.423 46.4515 45 46.4515C47.5771 46.4515 50.0372 45.8816 52.258 44.8616V40.6451H37.7419V44.8616Z" fill="#D29B6E"/>
<path d="M58.7492 33.6098C59.1234 32.4356 59.3345 31.209 59.3662 29.9769C59.5804 21.6224 47.8797 23.5786 38.2671 17.2538C37.5974 16.8131 36.7047 16.9536 36.247 17.6119C34.7281 19.7972 33.0089 21.525 31.9952 22.4575C31.457 22.9527 30.7586 23.2255 30.0271 23.2255H28.9827C28.9818 23.2255 28.9812 23.226 28.9804 23.226C28.8211 23.229 28.6582 23.2457 28.4924 23.2779C27.0796 23.5514 26.1287 24.9031 26.1287 26.3421V27.3922C26.1287 28.7809 27.0178 30.091 28.3701 30.4063C28.6745 30.4774 28.9707 30.4974 29.2544 30.4749C29.9762 30.4172 30.6063 30.9425 30.7362 31.6547C31.9704 38.4183 37.8795 43.5483 44.9997 43.5483C51.0508 43.5483 56.2154 39.8372 58.3911 34.5731C58.496 34.3168 58.7284 33.6722 58.7492 33.6098Z" fill="#F0C087"/>
<path d="M36.2901 29.0321V17.5583C34.7601 19.7687 33.0175 21.5172 31.9954 22.4577C31.4571 22.9528 30.7587 23.2257 30.0273 23.2257H28.9828C28.9819 23.2257 28.9814 23.2262 28.9805 23.2262C28.8215 23.2292 28.6589 23.2459 28.4935 23.2779C27.0807 23.5509 26.1287 24.9014 26.1287 26.3403V27.3922C26.1287 28.7807 27.0176 30.0906 28.3699 30.4063C28.6743 30.4774 28.9707 30.4976 29.2544 30.4749C29.9762 30.4172 30.6063 30.9425 30.7362 31.6547C31.9704 38.4183 37.8795 43.5483 44.9997 43.5483C45.9867 43.5483 46.947 43.4405 47.8781 43.2528C41.2649 41.8981 36.2901 36.0461 36.2901 29.0321Z" fill="#E6AF78"/>
<path d="M76.9353 90H13.0644C12.262 90 11.6128 89.35 11.6128 88.5484C11.6128 87.7468 12.2621 87.0968 13.0644 87.0968H76.9355C77.738 87.0968 78.3871 87.7468 78.3871 88.5484C78.3871 89.35 77.7378 90 76.9353 90Z" fill="#C39772"/>
<path d="M34.7345 56.4046L31.9353 50.8063L35.0902 48.1116C35.7361 47.5598 36.7157 47.6783 37.2116 48.3679L42.0967 55.1613L39.0733 57.4289C37.6241 58.5155 35.5446 58.0248 34.7345 56.4046Z" fill="#27AE60"/>
<path d="M55.2653 56.4046L58.0645 50.8063L54.9095 48.1116C54.2637 47.5598 53.2841 47.6783 52.7882 48.3679L47.9031 55.1613L50.9265 57.4289C52.3757 58.5155 54.4552 58.0248 55.2653 56.4046Z" fill="#27AE60"/>
<path d="M61.1334 87.0968H28.8662C27.329 87.0968 26.0583 85.8987 25.968 84.3641L24.8579 65.4931C24.7598 63.8254 26.0857 62.4193 27.7562 62.4193H62.2433C63.9137 62.4193 65.2397 63.8254 65.1416 65.4931L64.0315 84.3641C63.9413 85.8985 62.6706 87.0968 61.1334 87.0968Z" fill="#DBD9DC"/>
<path d="M44.9999 79.113C47.0041 79.113 48.6289 77.4882 48.6289 75.484C48.6289 73.4797 47.0041 71.8549 44.9999 71.8549C42.9956 71.8549 41.3708 73.4797 41.3708 75.484C41.3708 77.4882 42.9956 79.113 44.9999 79.113Z" fill="white"/>
</g>
<defs>
<clipPath id="clip0">
<rect width="90" height="90" fill="white"/>
</clipPath>
</defs>
</svg>
