<svg width="75" height="75" viewBox="0 0 75 75" fill="none" xmlns="http://www.w3.org/2000/svg">
<g clip-path="url(#clip0)">
<path d="M73.7503 70.6182H1.26513C0.574954 70.6182 0.0153809 70.0587 0.0153809 69.3685C0.0153809 68.6783 0.574954 68.1187 1.26513 68.1187H72.5006V10.6305C72.5006 9.94031 73.0602 9.38074 73.7503 9.38074C74.4405 9.38074 75.0001 9.94031 75.0001 10.6305V69.3685C75.0001 70.0587 74.4407 70.6182 73.7503 70.6182Z" fill="#29294F"/>
<path d="M7.51367 36.8751H22.5106V64.3695H7.51367V36.8751Z" fill="#A02C27"/>
<path d="M30.0093 21.8782H45.0062V64.3695H30.0093V21.8782Z" fill="#585088"/>
<path d="M52.5046 9.38074H67.5016V64.3695H52.5046V9.38074Z" fill="#1E8C4D"/>
<path d="M26.26 5.63152L30.3754 9.74693L20.0113 20.1111L17.1456 17.2454C16.6576 16.7575 15.8665 16.7575 15.3785 17.2454L0.381538 32.2423C-0.114923 32.7218 -0.12867 33.513 0.350763 34.0095C0.830197 34.5059 1.62144 34.5197 2.1179 34.0403C2.12837 34.0303 2.13852 34.0199 2.14868 34.0095L16.262 19.8961L19.1277 22.7618C19.6157 23.2496 20.4068 23.2496 20.8948 22.7618L32.1426 11.5141L36.258 15.6295L37.5077 4.38177L26.26 5.63152Z" fill="#585088"/>
<path d="M12.5127 60.6203C11.8225 60.6203 11.2629 60.0607 11.2629 59.3705V56.8711C11.2629 56.1809 11.8225 55.6213 12.5127 55.6213C13.2029 55.6213 13.7624 56.1809 13.7624 56.8711V59.3705C13.7624 60.0607 13.203 60.6203 12.5127 60.6203Z" fill="white"/>
<path d="M12.5127 53.1218C11.8225 53.1218 11.2629 52.5622 11.2629 51.8721V46.8731C11.2629 46.1829 11.8225 45.6234 12.5127 45.6234C13.2029 45.6234 13.7624 46.1829 13.7624 46.8731V51.8721C13.7624 52.5622 13.203 53.1218 12.5127 53.1218Z" fill="white"/>
<path d="M35.008 60.6203C34.3179 60.6203 33.7583 60.0607 33.7583 59.3705V56.8711C33.7583 56.1809 34.3179 55.6213 35.008 55.6213C35.6982 55.6213 36.2578 56.1809 36.2578 56.8711V59.3705C36.2578 60.0607 35.6984 60.6203 35.008 60.6203Z" fill="white"/>
<path d="M35.008 53.1218C34.3179 53.1218 33.7583 52.5622 33.7583 51.872V39.3746C33.7583 38.6844 34.3179 38.1248 35.008 38.1248C35.6982 38.1248 36.2578 38.6844 36.2578 39.3746V51.872C36.2578 52.5622 35.6984 53.1218 35.008 53.1218Z" fill="white"/>
<path d="M57.5036 60.6203C56.8135 60.6203 56.2539 60.0607 56.2539 59.3705V56.8711C56.2539 56.1809 56.8135 55.6213 57.5036 55.6213C58.1938 55.6213 58.7534 56.1809 58.7534 56.8711V59.3705C58.7534 60.0607 58.194 60.6203 57.5036 60.6203Z" fill="white"/>
<path d="M57.5036 53.1218C56.8135 53.1218 56.2539 52.5622 56.2539 51.8721V26.8772C56.2539 26.187 56.8135 25.6274 57.5036 25.6274C58.1938 25.6274 58.7534 26.187 58.7534 26.8772V51.8721C58.7534 52.5622 58.194 53.1218 57.5036 53.1218Z" fill="white"/>
</g>
<defs>
<clipPath id="clip0">
<rect width="75" height="75" fill="white"/>
</clipPath>
</defs>
</svg>
