<svg width="76" height="80" viewBox="0 0 76 80" fill="none" xmlns="http://www.w3.org/2000/svg">
<path d="M67.8885 40C67.8885 38.8229 67.8196 37.6621 67.6868 36.5208C67.5158 35.0532 68.0973 33.598 69.208 32.6235L73.7806 28.6119C75.3326 27.2503 75.6813 24.9703 74.6074 23.2071L69.7169 15.178C68.643 13.4147 66.4569 12.6786 64.5352 13.4329L58.8351 15.6701C57.4555 16.2116 55.9049 16.022 54.6759 15.1939C53.3555 14.3043 51.96 13.5175 50.5012 12.8447C49.1588 12.2256 48.1948 11.0009 47.9402 9.54478L46.8866 3.5178C46.531 1.48391 44.7652 -7.62939e-06 42.7006 -7.62939e-06H33.2995C31.2348 -7.62939e-06 29.469 1.48391 29.1136 3.51764L28.0599 9.54462C27.8053 11.0008 26.8414 12.2256 25.499 12.8445C24.0402 13.5173 22.6447 14.3041 21.3242 15.1937C20.0951 16.0216 18.5445 16.2113 17.165 15.67L11.4648 13.4328C9.54291 12.6786 7.35702 13.4147 6.28314 15.1779L1.39279 23.2069C0.318905 24.9702 0.667611 27.2502 2.21961 28.6118L6.79216 32.6234C7.90291 33.5978 8.4844 35.053 8.31342 36.5206C8.1804 37.662 8.11169 38.8229 8.11169 39.9998C8.11169 41.1768 8.18055 42.3377 8.31342 43.479C8.4844 44.9467 7.90291 46.4019 6.79216 47.3763L2.21961 51.3879C0.667611 52.7495 0.318905 55.0295 1.39279 56.7928L6.28314 64.8218C7.35702 66.5851 9.54306 67.3213 11.4648 66.5669L17.1649 64.3297C18.5445 63.7882 20.0951 63.978 21.3241 64.806C22.6446 65.6955 24.04 66.4824 25.4988 67.1551C26.8413 67.7743 27.8052 68.9989 28.0598 70.4551L29.1134 76.482C29.469 78.5161 31.2348 79.3725 33.2995 79.3725H42.7006C44.7652 79.3725 46.531 78.5161 46.8864 76.4824L47.9401 70.4554C48.1947 68.9992 49.1586 67.7744 50.501 67.1554C51.9599 66.4827 53.3553 65.6958 54.6758 64.8063C55.9049 63.9784 57.4555 63.7887 58.835 64.33L64.5351 66.5672C66.4569 67.3216 68.6428 66.5853 69.7167 64.8221L74.6071 56.7931C75.6809 55.0298 75.3322 52.7498 73.7802 51.3882L69.2077 47.3766C68.0969 46.4022 67.5155 44.947 67.6864 43.4794C67.8198 42.3379 67.8885 41.1771 67.8885 40Z" fill="#219653"/>
<path d="M37.9999 64.4315C51.493 64.4315 62.4314 53.4932 62.4314 40C62.4314 26.5068 51.493 15.5685 37.9999 15.5685C24.5067 15.5685 13.5684 26.5068 13.5684 40C13.5684 53.4932 24.5067 64.4315 37.9999 64.4315Z" fill="#A02C27"/>
<path d="M42.7007 80C44.7653 80 46.5311 78.5161 46.8865 76.4824L47.9402 70.4554C48.1948 68.9992 49.1587 67.7744 50.5011 67.1554C51.96 66.4827 53.3554 65.6958 54.6759 64.8063C55.9051 63.9784 57.4556 63.7887 58.8351 64.33L64.5352 66.5672C66.4571 67.3216 68.6429 66.5853 69.7168 64.8221L74.6072 56.7931C75.6811 55.0298 75.3324 52.7498 73.7803 51.3882L69.2078 47.3766C68.0971 46.4022 67.5156 44.947 67.6866 43.4794C67.7662 42.7951 67.8199 42.1031 67.8525 41.4055L52.794 26.347C51.8571 25.3324 50.8174 24.4139 49.6909 23.6092C48.7813 22.9594 47.5167 23.6177 47.5167 24.7357V38.024C47.5167 39.3972 46.8925 40.68 45.8469 41.531C45.6497 41.3415 28.3148 24.0367 28.1703 23.8619C27.7367 23.3377 26.9322 23.4773 26.2982 23.9308C21.1844 27.5893 18.1698 33.2684 18.1819 40.0372C18.1923 45.8648 20.3562 51.1018 24.311 54.7683L28.6404 59.1131L28.7973 69.2223C28.7973 71.6562 28.6942 74.0853 29.1134 76.4828C29.4691 78.5161 31.2349 80 33.2996 80H42.7007Z" fill="#A02C27"/>
<path d="M74.6072 56.7922L69.7178 64.822C68.6433 66.5851 66.4566 67.3208 64.535 66.5678L58.8347 64.3294C57.4558 63.7882 55.9045 63.978 54.6762 64.8063C53.3554 65.6957 51.9594 66.4831 50.5005 67.1561C49.1594 67.7741 48.1946 68.9992 47.9405 70.4549L46.8864 76.4831C46.5303 78.5161 44.7656 79.5294 42.7013 79.5294H33.299C32.2668 79.5294 31.3099 79.1592 30.5664 78.5333C30.1868 78.2149 29.8637 78.3012 29.6143 77.8667C30.2401 78.2275 30.9648 78.4314 31.7303 78.4314H41.1327C43.197 78.4314 44.9617 76.9475 45.3178 74.9145C45.5264 73.7161 45.6848 72.5082 45.7899 71.2973C45.895 70.0863 45.9484 68.869 45.9484 67.6533V56.1757C52.2668 52.7796 56.5633 46.1067 56.5633 38.4314C56.5633 33.2784 54.6276 28.5772 51.4417 25.0165C51.9139 25.4369 52.3641 25.8808 52.7939 26.3467L67.8527 41.4055C67.8197 42.1035 67.7664 42.7953 67.6864 43.4792C67.5154 44.9474 68.0974 46.4016 69.208 47.3773L73.7805 51.3882C75.3319 52.7498 75.6817 55.029 74.6072 56.7922Z" fill="#27AE60"/>
<path d="M46.8865 76.4823C47.3056 74.0849 47.5163 71.6557 47.5163 69.2218V52.6012H28.4836V69.2218C28.4836 71.6557 28.6943 74.0849 29.1134 76.4823C29.4691 78.5161 31.2349 80 33.2995 80H42.7006C44.7652 80 46.531 78.5161 46.8865 76.4823Z" fill="url(#paint0_linear)"/>
<path d="M28.4836 57.7503L46.9327 76.1994C47.3197 73.8938 47.5163 71.56 47.5163 69.2218V52.6012H28.4836V57.7503Z" fill="url(#paint1_linear)"/>
<path d="M58.1317 40C58.1317 51.1184 49.1185 60.1316 38.0001 60.1318C26.8817 60.1319 17.888 51.1551 17.8682 40.0367C17.8561 33.2679 21.1844 27.2751 26.2982 23.6166C27.212 22.9628 28.4829 23.6122 28.4829 24.7358V38.0237C28.4829 39.6397 29.3451 41.133 30.7446 41.9412L35.738 44.8243C37.1377 45.6325 38.8621 45.6325 40.2618 44.8243L45.2552 41.9412C46.6547 41.1332 47.5168 39.6398 47.5168 38.0237V24.7354C47.5168 23.6176 48.7815 22.9592 49.6911 23.6089C54.8017 27.2602 58.1317 33.2416 58.1317 40Z" fill="url(#paint2_linear)"/>
<path d="M23.1017 41.6957C23.1017 44.2256 24.4514 46.5633 26.6423 47.8282L34.4592 52.3417C36.6503 53.6068 39.3499 53.6068 41.5409 52.3417L49.3579 47.8282C51.5488 46.5633 52.8984 44.2256 52.8984 41.6957V26.4627C51.9343 25.4025 50.86 24.4442 49.6912 23.6091C48.7816 22.9592 47.5169 23.6176 47.5169 24.7355V38.0238C47.5169 39.6398 46.6548 41.1332 45.2553 41.9413L40.2619 44.8245C38.8622 45.6326 37.1378 45.6326 35.7381 44.8245L30.7447 41.9413C29.3452 41.1333 28.4831 39.64 28.4831 38.0238V24.736C28.4831 23.6122 27.2122 22.963 26.2983 23.6168C25.1336 24.45 24.0627 25.4056 23.1016 26.4626V41.6957H23.1017Z" fill="url(#paint3_linear)"/>
<defs>
<linearGradient id="paint0_linear" x1="37.2998" y1="64.0728" x2="49.3047" y2="76.0776" gradientUnits="userSpaceOnUse">
<stop stop-color="#E3E5E4"/>
<stop offset="1" stop-color="#CBD0E4"/>
</linearGradient>
<linearGradient id="paint1_linear" x1="43.8438" y1="68.4012" x2="35.8962" y2="50.4144" gradientUnits="userSpaceOnUse">
<stop stop-color="#CBD0E4" stop-opacity="0"/>
<stop offset="1" stop-color="#6A7D83"/>
</linearGradient>
<linearGradient id="paint2_linear" x1="30.6247" y1="32.6301" x2="56.9127" y2="58.9181" gradientUnits="userSpaceOnUse">
<stop stop-color="#E3E5E4"/>
<stop offset="1" stop-color="#CBD0E4"/>
</linearGradient>
<linearGradient id="paint3_linear" x1="49.1764" y1="46.706" x2="19.3721" y2="16.9017" gradientUnits="userSpaceOnUse">
<stop stop-color="#E3E5E4"/>
<stop offset="1" stop-color="#CBD0E4"/>
</linearGradient>
</defs>
</svg>
