<svg width="90" height="90" viewBox="0 0 90 90" fill="none" xmlns="http://www.w3.org/2000/svg">
<path d="M83.5628 41.7533C83.5721 42.398 83.4532 43.0382 83.213 43.6365C82.9727 44.2349 82.616 44.7795 82.1634 45.2388C81.7109 45.698 81.1715 46.0628 80.5768 46.3118C79.982 46.5608 79.3437 46.6891 78.6989 46.6893H11.8089C10.5308 46.6892 9.30405 46.1861 8.3939 45.2887C7.48374 44.3914 6.96328 43.1719 6.94504 41.8939L6.43703 6.86953C6.42771 6.22482 6.54663 5.58469 6.78686 4.98634C7.0271 4.388 7.38386 3.84336 7.83642 3.3841C8.28898 2.92483 8.82831 2.5601 9.42306 2.31109C10.0178 2.06208 10.6561 1.93376 11.3009 1.93359H78.1909C79.4688 1.9336 80.6953 2.43642 81.6054 3.33339C82.5156 4.23036 83.0362 5.44944 83.0548 6.72715L83.5628 41.7533Z" fill="#27AE60"/>
<path d="M76.1854 66.0744C74.0102 66.0743 71.8839 66.7192 70.0752 67.9277C68.2666 69.1361 66.8569 70.8538 66.0246 72.8634C65.1922 74.8731 64.9745 77.0844 65.3989 79.2178C65.8234 81.3512 66.871 83.3108 68.4092 84.8488C69.9474 86.3867 71.9072 87.434 74.0406 87.8581C76.1741 88.2823 78.3854 88.0642 80.3949 87.2315C82.4044 86.3988 84.1218 84.9889 85.33 83.18C86.5381 81.3712 87.1828 79.2447 87.1823 77.0695C87.1823 75.6255 86.8978 74.1956 86.3451 72.8615C85.7925 71.5274 84.9824 70.3152 83.9612 69.2942C82.9401 68.2732 81.7278 67.4634 80.3936 66.9109C79.0594 66.3584 77.6295 66.0742 76.1854 66.0744Z" fill="#A02C27"/>
<path d="M44.9052 66.0744C42.7297 66.0738 40.6029 66.7184 38.7938 67.9267C36.9847 69.1349 35.5746 70.8526 34.7418 72.8623C33.909 74.8721 33.691 77.0837 34.1152 79.2174C34.5395 81.3511 35.587 83.3111 37.1253 84.8494C38.6636 86.3876 40.6236 87.4352 42.7573 87.8594C44.891 88.2837 47.1026 88.0657 49.1123 87.2329C51.1221 86.4001 52.8398 84.99 54.048 83.1809C55.2563 81.3718 55.9009 79.245 55.9003 77.0695C55.8999 74.1536 54.7413 71.3572 52.6794 69.2953C50.6175 67.2334 47.8211 66.0748 44.9052 66.0744V66.0744Z" fill="#A02C27"/>
<path d="M13.7812 66.0744C11.606 66.0806 9.48159 66.7318 7.67652 67.9455C5.87145 69.1592 4.46687 70.881 3.6404 72.893C2.81393 74.9051 2.60272 77.117 3.03346 79.2491C3.4642 81.3812 4.51755 83.3377 6.0603 84.8711C7.60304 86.4045 9.56587 87.4459 11.7005 87.8637C13.8352 88.2815 16.0458 88.0569 18.0528 87.2182C20.0598 86.3795 21.773 84.9645 22.9757 83.1521C24.1785 81.3397 24.8167 79.2113 24.8097 77.0361C24.8007 74.1201 23.6338 71.327 21.5656 69.2713C19.4974 67.2156 16.6973 66.0657 13.7812 66.0744V66.0744Z" fill="#A02C27"/>
<path d="M78.7571 11.9373V36.8473L73.4907 41.792H16.5094L11.4065 36.8473V11.9373L16.6711 6.8291H73.5821L78.7571 11.9373Z" fill="#27AE60"/>
<path d="M69.9573 19.3518C70.9383 19.3516 71.8974 19.6424 72.7131 20.1873C73.5288 20.7322 74.1647 21.5068 74.5402 22.4131C74.9157 23.3194 75.014 24.3166 74.8226 25.2788C74.6313 26.241 74.1589 27.1248 73.4652 27.8185C72.7715 28.5121 71.8877 28.9845 70.9256 29.1759C69.9634 29.3672 68.9661 29.2689 68.0598 28.8934C67.1535 28.5179 66.3789 27.8821 65.834 27.0663C65.2891 26.2506 64.9984 25.2916 64.9985 24.3106C64.9986 22.9954 65.5211 21.7342 66.451 20.8043C67.381 19.8743 68.6422 19.3519 69.9573 19.3518V19.3518Z" fill="#27AE60"/>
<path d="M45.0808 38.6789C53.0162 38.6789 59.4491 32.246 59.4491 24.3106C59.4491 16.3751 53.0162 9.9422 45.0808 9.9422C37.1453 9.9422 30.7124 16.3751 30.7124 24.3106C30.7124 32.246 37.1453 38.6789 45.0808 38.6789Z" fill="#27AE60"/>
<path d="M19.6241 86.4L19.6276 86.4053C17.8831 87.491 15.8694 88.0665 13.8145 88.0665C11.7597 88.0665 9.74601 87.491 8.00146 86.4053L8.00498 86.4V83.3168C8.00545 82.3104 8.40544 81.3454 9.11706 80.6337C9.82868 79.9221 10.7937 79.5221 11.8001 79.5217H15.8272C16.8339 79.5217 17.7994 79.9214 18.5114 80.6331C19.2234 81.3448 19.6237 82.3101 19.6241 83.3168V86.4Z" fill="#384868"/>
<path d="M17.2265 73.8492V74.7984C17.2265 75.2466 17.1382 75.6904 16.9667 76.1045C16.7952 76.5185 16.5438 76.8948 16.2269 77.2117C15.91 77.5286 15.5338 77.78 15.1197 77.9515C14.7056 78.123 14.2618 78.2112 13.8137 78.2112C13.3655 78.2112 12.9217 78.123 12.5077 77.9515C12.0936 77.78 11.7174 77.5286 11.4005 77.2117C11.0836 76.8948 10.8322 76.5185 10.6607 76.1045C10.4892 75.6904 10.4009 75.2466 10.4009 74.7984V73.8492C10.4009 73.4011 10.4892 72.9573 10.6607 72.5432C10.8322 72.1292 11.0836 71.7529 11.4005 71.436C11.7174 71.1191 12.0936 70.8677 12.5077 70.6962C12.9217 70.5247 13.3655 70.4364 13.8137 70.4364C14.2618 70.4364 14.7056 70.5247 15.1197 70.6962C15.5338 70.8677 15.91 71.1191 16.2269 71.436C16.5438 71.7529 16.7952 72.1292 16.9667 72.5432C17.1382 72.9573 17.2265 73.4011 17.2265 73.8492V73.8492Z" fill="#EFDFAD"/>
<path d="M50.7147 86.4L50.7182 86.407C48.9733 87.4916 46.9597 88.0664 44.9051 88.0664C42.8506 88.0664 40.837 87.4916 39.092 86.407L39.0956 86.4V83.3168C39.096 82.3104 39.496 81.3454 40.2076 80.6337C40.9193 79.9221 41.8843 79.5221 42.8907 79.5217H46.9178C47.9245 79.5217 48.89 79.9214 49.602 80.6331C50.314 81.3448 50.7142 82.3101 50.7147 83.3168V86.4Z" fill="#384868"/>
<path d="M48.317 73.8492V74.7984C48.317 75.7036 47.9575 76.5716 47.3174 77.2117C46.6774 77.8517 45.8094 78.2112 44.9042 78.2112C43.9991 78.2112 43.1311 77.8517 42.491 77.2117C41.851 76.5716 41.4915 75.7036 41.4915 74.7984V73.8492C41.4915 72.9441 41.851 72.076 42.491 71.436C43.1311 70.796 43.9991 70.4364 44.9042 70.4364C45.8094 70.4364 46.6774 70.796 47.3174 71.436C47.9575 72.076 48.317 72.9441 48.317 73.8492V73.8492Z" fill="#EFDFAD"/>
<path d="M81.995 86.4L81.9985 86.407C80.2536 87.4919 78.2398 88.0667 76.1851 88.0664C74.1305 88.0661 72.1169 87.4907 70.3723 86.4053L70.3758 86.4V83.3168C70.3763 82.3101 70.7765 81.3448 71.4885 80.6331C72.2005 79.9214 73.166 79.5217 74.1727 79.5217H78.1999C79.2062 79.5221 80.1713 79.9221 80.8829 80.6337C81.5945 81.3454 81.9945 82.3104 81.995 83.3168V86.4Z" fill="#384868"/>
<path d="M79.599 73.8492V74.7984C79.599 75.7036 79.2395 76.5716 78.5994 77.2117C77.9594 77.8517 77.0914 78.2112 76.1862 78.2112C75.2811 78.2112 74.413 77.8517 73.773 77.2117C73.133 76.5716 72.7734 75.7036 72.7734 74.7984V73.8492C72.7734 72.9441 73.133 72.076 73.773 71.436C74.413 70.796 75.2811 70.4364 76.1862 70.4364C77.0914 70.4364 77.9594 70.796 78.5994 71.436C79.2395 72.076 79.599 72.9441 79.599 73.8492V73.8492Z" fill="#EFDFAD"/>
<path d="M35.986 24.3105C35.9868 20.9576 37.16 17.7105 39.3025 15.1314C41.445 12.5523 44.4219 10.8036 47.7178 10.1879C45.6428 9.79923 43.5077 9.87252 41.4644 10.4026C39.421 10.9327 37.5195 11.9065 35.8951 13.2548C34.2708 14.6031 32.9635 16.2928 32.0663 18.2036C31.169 20.1145 30.7039 22.1996 30.7039 24.3106C30.7039 26.4216 31.169 28.5067 32.0663 30.4176C32.9635 32.3284 34.2708 34.0181 35.8951 35.3664C37.5195 36.7147 39.421 37.6886 41.4644 38.2186C43.5077 38.7487 45.6428 38.822 47.7178 38.4333C44.4217 37.8179 41.4447 36.0692 39.3021 33.49C37.1596 30.9108 35.9865 27.6635 35.986 24.3105V24.3105Z" fill="#177740"/>
<path d="M16.6992 11.9373L21.9445 6.85547H16.6711L11.4258 11.9373V36.8473L16.5094 41.8359H21.7828L16.6992 36.8473V11.9373Z" fill="#27AE60"/>
<path d="M20.2042 19.3518C21.1851 19.3519 22.144 19.643 22.9595 20.1881C23.775 20.7332 24.4106 21.5079 24.7858 22.4143C25.161 23.3206 25.2591 24.3178 25.0675 25.2799C24.876 26.2419 24.4035 27.1256 23.7097 27.8191C23.016 28.5126 22.1322 28.9848 21.17 29.176C20.2079 29.3672 19.2107 29.2688 18.3045 28.8932C17.3983 28.5177 16.6238 27.8819 16.079 27.0662C15.5342 26.2504 15.2435 25.2915 15.2437 24.3106C15.244 22.9952 15.7668 21.7339 16.6971 20.804C17.6273 19.874 18.8889 19.3517 20.2042 19.3518V19.3518Z" fill="#27AE60"/>
<path d="M77.1679 65.0628V60.6465C77.1709 60.1161 77.069 59.5903 76.868 59.0995C76.667 58.6087 76.371 58.1624 75.9968 57.7865C75.6227 57.4105 75.1779 57.1123 74.688 56.9089C74.1982 56.7056 73.6729 56.6011 73.1425 56.6016H46.0546V47.8125H78.6986C79.4854 47.8047 80.2628 47.6418 80.9865 47.3329C81.7101 47.0241 82.3656 46.5755 82.9155 46.0127C83.4654 45.45 83.8988 44.7843 84.1909 44.0537C84.4829 43.3232 84.6279 42.5421 84.6175 41.7554L84.1099 6.72117C84.0814 5.16738 83.4463 3.68635 82.3403 2.59463C81.2343 1.50292 79.7452 0.887138 78.1911 0.878906H11.3013C10.5167 0.878894 9.73994 1.03485 9.01618 1.33771C8.29241 1.64057 7.63607 2.08429 7.08532 2.64307C6.53457 3.20185 6.1004 3.86455 5.80805 4.59262C5.51569 5.3207 5.371 6.09963 5.38237 6.88412L5.89002 41.9444C5.91749 43.5009 6.55146 44.9851 7.65695 46.0812C8.76243 47.1772 10.2521 47.7984 11.8088 47.8125H43.9453V56.6016H16.8574C16.327 56.6011 15.8017 56.7056 15.3119 56.9089C14.822 57.1123 14.3772 57.4105 14.0031 57.7865C13.6289 58.1624 13.3329 58.6087 13.1319 59.0995C12.9309 59.5903 12.829 60.1161 12.832 60.6465V65.1071C9.80774 65.3678 6.99171 66.7548 4.94172 68.9935C2.89173 71.2321 1.75732 74.1591 1.76321 77.1945C1.78342 83.8273 7.18536 89.2969 13.8135 89.2969H13.8505C17.0694 89.2969 20.0919 87.9421 22.3611 85.6591C24.6238 83.3651 25.884 80.267 25.8649 77.0449C25.8576 74.053 24.7336 71.1716 22.7131 68.9649C20.6926 66.7583 17.9211 65.3854 14.9414 65.1152V60.6465C14.938 60.393 14.9852 60.1414 15.0801 59.9064C15.1749 59.6713 15.3156 59.4575 15.494 59.2774C15.6723 59.0972 15.8847 58.9544 16.1187 58.8571C16.3528 58.7599 16.6039 58.7102 16.8574 58.7109H43.9453V65.061C40.854 65.3114 37.9786 66.7451 35.9184 69.0634C33.8583 71.3816 32.7723 74.4055 32.8868 77.5048C33.0014 80.6041 34.3077 83.5396 36.5334 85.6994C38.759 87.8592 41.7324 89.0768 44.8337 89.0982C47.9351 89.1197 50.925 87.9434 53.1804 85.8145C55.4357 83.6857 56.7824 80.7686 56.9399 77.6712C57.0973 74.5738 56.0532 71.5351 54.0253 69.1886C51.9974 66.8421 49.1421 65.3687 46.0546 65.0756V58.7109H73.1425C73.396 58.7102 73.6471 58.7599 73.8812 58.8571C74.1152 58.9544 74.3276 59.0972 74.5059 59.2774C74.6843 59.4575 74.825 59.6713 74.9198 59.9064C75.0147 60.1414 75.0619 60.393 75.0585 60.6465V65.0742C71.9647 65.3622 69.1014 66.8332 67.0655 69.1805C65.0296 71.5278 63.9782 74.5703 64.1304 77.6738C64.2827 80.7772 65.627 83.7022 67.8829 85.8389C70.1389 87.9756 73.1324 89.1592 76.2396 89.1428C79.3468 89.1265 82.3278 87.9116 84.5612 85.7513C86.7946 83.5911 88.108 80.6522 88.2277 77.5473C88.3474 74.4423 87.2641 71.411 85.2037 69.0852C83.1432 66.7594 80.2646 65.3186 77.1679 65.0631V65.0628ZM18.6328 85.8769C17.1403 86.6298 15.512 87.0755 13.8441 87.1875H13.8135C12.1751 87.1382 10.5725 86.6962 9.14057 85.8985V83.3175C9.14057 81.806 10.2891 80.5078 11.8008 80.5078H15.8275C16.5679 80.5216 17.2741 80.8222 17.7974 81.3463C18.3207 81.8703 18.6201 82.577 18.6328 83.3175V85.8769ZM11.4257 74.799V73.8489C11.4257 73.2195 11.6757 72.6159 12.1208 72.1709C12.5658 71.7258 13.1694 71.4758 13.7988 71.4758C14.4281 71.4758 15.0317 71.7258 15.4768 72.1709C15.9218 72.6159 16.1718 73.2195 16.1718 73.8489V74.799C16.1718 75.4283 15.9218 76.0319 15.4768 76.477C15.0317 76.922 14.4281 77.172 13.7988 77.172C13.1694 77.172 12.5658 76.922 12.1208 76.477C11.6757 76.0319 11.4257 75.4283 11.4257 74.799ZM20.8225 70.139C21.75 71.0424 22.4874 72.1223 22.9911 73.3151C23.4948 74.5078 23.7548 75.7893 23.7556 77.0841C23.7691 78.3948 23.5236 79.6951 23.033 80.9106C22.5425 82.126 21.8165 83.2325 20.897 84.1665C20.836 84.228 20.7421 84.2857 20.7421 84.3453V83.3175C20.7336 82.1143 20.2814 80.9565 19.472 80.0661C18.6627 79.1757 17.5532 78.6153 16.3562 78.4923C16.9548 78.0812 17.4433 77.5294 17.7789 76.8855C18.1145 76.2415 18.287 75.5251 18.2812 74.799V73.8489C18.2812 72.6601 17.8089 71.5199 16.9683 70.6793C16.1277 69.8387 14.9876 69.3664 13.7988 69.3664C12.61 69.3664 11.4698 69.8387 10.6292 70.6793C9.78861 71.5199 9.31635 72.6601 9.31635 73.8489V74.799C9.32716 75.5317 9.51605 76.2508 9.86672 76.8942C10.2174 77.5376 10.7193 78.0861 11.3292 78.4923C10.1415 78.6192 9.04356 79.1836 8.24907 80.0755C7.45459 80.9674 7.02046 82.1231 7.0312 83.3175V84.3643C6.04738 83.4665 5.26188 82.3731 4.72496 81.1543C4.18805 79.9354 3.91156 78.6178 3.91319 77.2859C3.90497 75.9831 4.15401 74.6914 4.64604 73.485C5.13806 72.2786 5.86339 71.1812 6.78043 70.2558C7.69746 69.3303 8.78817 68.5949 9.99 68.0919C11.1918 67.5888 12.4811 67.3279 13.784 67.3242H13.8149C16.4589 67.3242 18.9465 68.2743 20.8225 70.139V70.139ZM49.746 85.7988C48.164 86.5723 46.6333 87.0117 44.9121 87.0117C43.2251 87.0145 41.5639 86.5977 40.0781 85.7988V83.3175C40.0923 82.5763 40.3933 81.8695 40.9178 81.3455C41.4422 80.8216 42.1494 80.5213 42.8906 80.5078H46.9177C47.6606 80.5207 48.3697 80.8203 48.8969 81.3439C49.424 81.8676 49.7282 82.5747 49.746 83.3175V85.7988ZM42.539 74.7991V73.849C42.539 73.2197 42.789 72.6161 43.2341 72.171C43.6791 71.726 44.2827 71.476 44.9121 71.476C45.5414 71.476 46.145 71.726 46.5901 72.171C47.0351 72.6161 47.2851 73.2197 47.2851 73.849V74.7991C47.2851 75.4285 47.0351 76.0321 46.5901 76.4771C46.145 76.9222 45.5414 77.1722 44.9121 77.1722C44.2827 77.1722 43.6791 76.9222 43.2341 76.4771C42.789 76.0321 42.539 75.4285 42.539 74.7991V74.7991ZM54.8894 77.0704C54.8894 79.8917 53.6132 82.4404 51.8554 84.2516V83.3177C51.8469 82.1144 51.3946 80.9567 50.5853 80.0663C49.776 79.1758 48.6665 78.6155 47.4695 78.4925C48.0681 78.0813 48.5566 77.5295 48.8922 76.8856C49.2278 76.2416 49.4003 75.5251 49.3945 74.799V73.8489C49.3945 72.6601 48.9222 71.5199 48.0816 70.6793C47.241 69.8387 46.1009 69.3664 44.9121 69.3664C43.7232 69.3664 42.5831 69.8387 41.7425 70.6793C40.9019 71.5199 40.4296 72.6601 40.4296 73.8489V74.799C40.4238 75.5251 40.5963 76.2415 40.9319 76.8855C41.2676 77.5294 41.7561 78.0812 42.3546 78.4923C41.1576 78.6153 40.0482 79.1757 39.2388 80.0661C38.4295 80.9565 37.9772 82.1143 37.9687 83.3175V84.252C36.2109 82.4414 34.9277 79.8926 34.9277 77.0708C34.9277 71.589 39.4277 67.1293 44.9087 67.1293C50.3898 67.1293 54.8894 71.5885 54.8894 77.0702V77.0704ZM11.8088 45.7031C10.8056 45.6912 9.84653 45.2888 9.13524 44.5813C8.42396 43.8738 8.01644 42.9169 7.99922 41.9138L7.49157 6.87076C7.48391 6.36491 7.57669 5.86257 7.76453 5.39282C7.95238 4.92308 8.23155 4.49527 8.58588 4.13417C8.94021 3.77307 9.36266 3.48586 9.82877 3.28916C10.2949 3.09247 10.7954 2.9902 11.3013 2.98828H78.1911C79.1908 2.99238 80.1491 3.38757 80.8611 4.08928C81.573 4.79099 81.9821 5.74349 82.0007 6.74297L82.5083 41.786C82.5212 42.8103 82.1274 43.7978 81.4132 44.5321C80.699 45.2664 79.7228 45.6875 78.6986 45.7031H11.8088ZM80.8593 85.7988C79.404 86.5947 77.7719 87.0119 76.1132 87.0119C74.4545 87.0119 72.8224 86.5947 71.3671 85.7988V83.3175C71.3798 82.577 71.6792 81.8703 72.2025 81.3463C72.7258 80.8222 73.432 80.5216 74.1724 80.5078H78.199C79.7108 80.5078 80.8593 81.806 80.8593 83.3175V85.7988ZM73.8281 74.7991V73.849C73.8281 73.2197 74.0781 72.6161 74.5231 72.171C74.9682 71.726 75.5717 71.476 76.2011 71.476C76.8305 71.476 77.4341 71.726 77.8791 72.171C78.3241 72.6161 78.5742 73.2197 78.5742 73.849V74.7991C78.5742 75.4285 78.3241 76.0321 77.8791 76.4771C77.4341 76.9222 76.8305 77.1722 76.2011 77.1722C75.5717 77.1722 74.9682 76.9222 74.5231 76.4771C74.0781 76.0321 73.8281 75.4285 73.8281 74.7991ZM82.9687 84.252V83.318C82.9794 82.1236 82.5453 80.968 81.7508 80.076C80.9563 79.1841 79.8584 78.6197 78.6707 78.4928C79.2806 78.0866 79.7826 77.538 80.1333 76.8945C80.484 76.251 80.6728 75.5318 80.6835 74.799V73.8489C80.6835 72.6601 80.2113 71.5199 79.3707 70.6793C78.5301 69.8387 77.3899 69.3664 76.2011 69.3664C75.0123 69.3664 73.8722 69.8387 73.0316 70.6793C72.191 71.5199 71.7187 72.6601 71.7187 73.8489V74.799C71.7129 75.5251 71.8854 76.2415 72.221 76.8855C72.5566 77.5294 73.0451 78.0812 73.6437 78.4923C72.4467 78.6153 71.3372 79.1757 70.5279 80.0661C69.7185 80.9565 69.2663 82.1143 69.2578 83.3175V84.252C67.4999 82.4414 66.2123 79.8926 66.2123 77.0708C66.2123 75.7663 66.4693 74.4746 66.9685 73.2695C67.4677 72.0643 68.1993 70.9693 69.1217 70.0469C70.0441 69.1245 71.1391 68.3929 72.3443 67.8937C73.5494 67.3945 74.8411 67.1375 76.1456 67.1375C77.45 67.1375 78.7417 67.3945 79.9469 67.8937C81.152 68.3929 82.247 69.1245 83.1694 70.0469C84.0918 70.9693 84.8235 72.0643 85.3227 73.2695C85.8219 74.4746 86.0788 75.7663 86.0788 77.0708C86.0822 78.4173 85.8078 79.7501 85.2726 80.9857C84.7375 82.2213 83.9532 83.3333 82.9687 84.252V84.252Z" fill="#4E5053"/>
<path d="M79.8045 36.8471V11.9373C79.8051 11.7988 79.7779 11.6616 79.7246 11.5339C79.6713 11.4061 79.5929 11.2902 79.4941 11.1932L74.3233 6.09186C74.1245 5.90046 73.8578 5.79576 73.5819 5.80077H16.6715C16.3989 5.79594 16.1352 5.8981 15.9371 6.08536L10.6812 11.1869C10.5813 11.2844 10.5023 11.4012 10.449 11.5302C10.3957 11.6592 10.3691 11.7977 10.3709 11.9373V36.8471C10.3691 36.9877 10.3956 37.1273 10.449 37.2574C10.5024 37.3875 10.5815 37.5055 10.6815 37.6043L15.7803 42.5717C15.9729 42.7683 16.2341 42.8826 16.5092 42.8906H73.4905C73.7613 42.8826 74.0191 42.7728 74.2126 42.5832L79.4751 37.6261C79.5799 37.5253 79.663 37.4043 79.7197 37.2704C79.7763 37.1365 79.8052 36.9925 79.8045 36.8471ZM77.6952 36.39L73.0721 40.7812H16.9364L12.4803 36.4004V12.3836L17.0988 7.91014H73.1495L77.6952 12.3782V36.39Z" fill="#4E5053"/>
<path d="M45.081 18.958C45.6412 18.9586 46.1784 19.1815 46.5745 19.5777C46.9707 19.9738 47.1936 20.511 47.1942 21.0712C47.1942 21.351 47.3053 21.6192 47.5031 21.817C47.7009 22.0148 47.9692 22.1259 48.2489 22.1259C48.3853 22.1251 48.5201 22.0969 48.6454 22.0431C48.7707 21.9893 48.884 21.9109 48.9785 21.8126C49.0731 21.7143 49.1469 21.598 49.1958 21.4707C49.2446 21.3434 49.2675 21.2075 49.263 21.0712C49.2751 20.1258 48.9635 19.2048 48.3798 18.4609C47.7962 17.7171 46.9757 17.1952 46.0546 16.982V16.1627C46.0546 15.883 45.9435 15.6147 45.7457 15.4169C45.5479 15.2192 45.2796 15.108 44.9999 15.108C44.7202 15.108 44.4519 15.2192 44.2541 15.4169C44.0564 15.6147 43.9452 15.883 43.9452 16.1627V16.982C42.9541 17.2493 42.094 17.8681 41.5254 18.7228C40.9568 19.5776 40.7186 20.61 40.8552 21.6274C40.9917 22.6449 41.4937 23.5779 42.2675 24.2525C43.0414 24.9271 44.0342 25.2972 45.0607 25.2937C45.6202 25.29 46.1583 25.5085 46.5569 25.901C46.9555 26.2936 47.1822 26.8283 47.1871 27.3877C47.192 27.9472 46.9749 28.4857 46.5832 28.8853C46.1916 29.2848 45.6575 29.5127 45.098 29.5189C45.0906 29.5189 45.0859 29.5177 45.0785 29.5177C45.0711 29.5177 45.0651 29.5188 45.0576 29.5189C44.5014 29.5126 43.9701 29.2874 43.5788 28.892C43.1876 28.4967 42.9678 27.9631 42.9672 27.4069C42.9672 27.1272 42.8561 26.8589 42.6583 26.6611C42.4605 26.4634 42.1922 26.3522 41.9125 26.3522C41.6285 26.3507 41.3552 26.4601 41.1507 26.6571C40.9461 26.8541 40.8265 27.1231 40.8174 27.4069C40.8221 28.3362 41.1301 29.2385 41.6947 29.9766C42.2593 30.7147 43.0496 31.2482 43.9452 31.4959V32.4594C43.9452 32.7391 44.0564 33.0074 44.2541 33.2052C44.4519 33.403 44.7202 33.5141 44.9999 33.5141C45.2796 33.5141 45.5479 33.403 45.7457 33.2052C45.9435 33.0074 46.0546 32.7391 46.0546 32.4594V31.4959C46.9757 31.2828 47.7962 30.761 48.3798 30.0171C48.9634 29.2733 49.2751 28.3523 49.263 27.4069C49.2646 26.8536 49.1572 26.3055 48.9469 25.7937C48.7365 25.282 48.4274 24.8168 48.0371 24.4246C47.6468 24.0324 47.1831 23.721 46.6724 23.5082C46.1617 23.2954 45.614 23.1853 45.0607 23.1843C44.5032 23.1773 43.971 22.9502 43.5801 22.5525C43.1892 22.1548 42.9714 21.6187 42.974 21.0611C42.9767 20.5035 43.1997 19.9695 43.5943 19.5756C43.989 19.1816 44.5233 18.9597 45.081 18.958V18.958Z" fill="#4E5053"/>
<path d="M45.0809 8.88803C42.0305 8.888 39.0486 9.79253 36.5123 11.4872C33.9759 13.1819 31.9991 15.5907 30.8317 18.4089C29.6644 21.2272 29.359 24.3282 29.9541 27.3201C30.5492 30.3119 32.0182 33.06 34.1752 35.2169C36.3322 37.3739 39.0803 38.8428 42.0721 39.4378C45.064 40.0329 48.165 39.7274 50.9832 38.56C53.8014 37.3926 56.2102 35.4157 57.9048 32.8793C59.5995 30.3429 60.5039 27.361 60.5038 24.3106C60.4991 20.2216 58.8726 16.3016 55.9813 13.4103C53.09 10.519 49.1699 8.89268 45.0809 8.88803V8.88803ZM45.0809 37.6248C42.4478 37.6248 39.8737 36.844 37.6843 35.3811C35.4948 33.9182 33.7884 31.839 32.7806 29.4062C31.7729 26.9735 31.5092 24.2966 32.0229 21.714C32.5365 19.1314 33.8044 16.7591 35.6663 14.8971C37.5282 13.0352 39.9004 11.7671 42.483 11.2533C45.0656 10.7395 47.7425 11.0031 50.1753 12.0107C52.6081 13.0183 54.6874 14.7246 56.1504 16.914C57.6134 19.1034 58.3943 21.6774 58.3944 24.3106C58.3906 27.8404 56.9867 31.2246 54.4908 33.7206C51.9949 36.2166 48.6108 37.6207 45.0809 37.6248Z" fill="#4E5053"/>
<path d="M20.204 18.2965C19.0144 18.2965 17.8515 18.6493 16.8624 19.3102C15.8733 19.9711 15.1024 20.9105 14.6472 22.0095C14.192 23.1086 14.0729 24.3179 14.3051 25.4846C14.5372 26.6514 15.1101 27.723 15.9513 28.5642C16.7925 29.4053 17.8642 29.9781 19.0309 30.2101C20.1977 30.4421 21.407 30.3229 22.506 29.8676C23.605 29.4123 24.5443 28.6413 25.2051 27.6522C25.866 26.663 26.2186 25.5001 26.2185 24.3105C26.2166 22.716 25.5822 21.1874 24.4547 20.06C23.3272 18.9325 21.7985 18.2984 20.204 18.2965V18.2965ZM20.204 28.2162C19.4316 28.2162 18.6766 27.9872 18.0345 27.5581C17.3923 27.129 16.8917 26.5192 16.5961 25.8056C16.3006 25.0921 16.2232 24.3069 16.3738 23.5494C16.5245 22.7919 16.8963 22.0961 17.4424 21.5499C17.9885 21.0037 18.6843 20.6318 19.4418 20.481C20.1993 20.3303 20.9845 20.4075 21.6981 20.703C22.4116 20.9985 23.0216 21.499 23.4507 22.1411C23.8799 22.7832 24.109 23.5382 24.1091 24.3105C24.1081 25.346 23.6964 26.3387 22.9643 27.071C22.2321 27.8032 21.2394 28.2151 20.204 28.2162Z" fill="#4E5053"/>
<path d="M63.9434 24.3106C63.9434 25.5001 64.2961 26.663 64.957 27.652C65.6179 28.6411 66.5572 29.412 67.6562 29.8673C68.7552 30.3225 69.9646 30.4416 71.1313 30.2095C72.298 29.9774 73.3697 29.4046 74.2108 28.5635C75.0519 27.7223 75.6248 26.6506 75.8568 25.4839C76.0889 24.3172 75.9698 23.1079 75.5146 22.0089C75.0594 20.9099 74.2885 19.9705 73.2994 19.3097C72.3103 18.6488 71.1474 18.296 69.9579 18.296C68.3633 18.2978 66.8345 18.932 65.7069 20.0596C64.5794 21.1871 63.9451 22.7159 63.9434 24.3106V24.3106ZM73.863 24.3106C73.863 25.0829 73.634 25.8379 73.2049 26.4801C72.7758 27.1223 72.1659 27.6229 71.4523 27.9184C70.7387 28.214 69.9536 28.2914 69.196 28.1407C68.4385 27.99 67.7427 27.6181 67.1965 27.0719C66.6504 26.5258 66.2785 25.8299 66.1278 25.0724C65.9771 24.3149 66.0544 23.5297 66.35 22.8161C66.6456 22.1025 67.1461 21.4926 67.7883 21.0635C68.4305 20.6344 69.1855 20.4054 69.9579 20.4054C70.9933 20.4065 71.9859 20.8183 72.7181 21.5504C73.4502 22.2825 73.8621 23.2752 73.8632 24.3106H73.863Z" fill="#4E5053"/>
<path d="M17.0706 12.1289H17.5956C17.8753 12.1289 18.1436 12.0178 18.3414 11.82C18.5392 11.6222 18.6503 11.3539 18.6503 11.0742C18.6503 10.7945 18.5392 10.5262 18.3414 10.3284C18.1436 10.1306 17.8753 10.0195 17.5956 10.0195H17.0706C16.7908 10.0195 16.5226 10.1306 16.3248 10.3284C16.127 10.5262 16.0159 10.7945 16.0159 11.0742C16.0159 11.3539 16.127 11.6222 16.3248 11.82C16.5226 12.0178 16.7908 12.1289 17.0706 12.1289V12.1289Z" fill="#4E5053"/>
<path d="M20.9895 12.1289H30.9507C31.2304 12.1289 31.4987 12.0178 31.6964 11.82C31.8942 11.6222 32.0054 11.3539 32.0054 11.0742C32.0054 10.7945 31.8942 10.5262 31.6964 10.3284C31.4987 10.1306 31.2304 10.0195 30.9507 10.0195H20.9895C20.7098 10.0195 20.4415 10.1306 20.2437 10.3284C20.0459 10.5262 19.9348 10.7945 19.9348 11.0742C19.9348 11.3539 20.0459 11.6222 20.2437 11.82C20.4415 12.0178 20.7098 12.1289 20.9895 12.1289V12.1289Z" fill="#4E5053"/>
</svg>
