<svg width="90" height="90" viewBox="0 0 90 90" fill="none" xmlns="http://www.w3.org/2000/svg">
<path d="M60.7183 85.8122V53.9339L55.5475 51.5116L54.1441 44.0578H35.8558L34.4524 51.5116L29.4482 53.8559V85.8122H60.7183Z" fill="#E2B48A"/>
<path d="M82.2374 89.2969L80.9015 72.2208C80.6841 69.4376 79.7327 66.7619 78.1442 64.4662C76.5558 62.1705 74.3872 60.337 71.8593 59.1525L57.5085 52.4292V56.5819H55.8731V58.7616H31.7988V52.7548L18.1406 59.1525C15.6123 60.3367 13.4432 62.1701 11.8544 64.4658C10.2656 66.7615 9.31392 69.4374 9.09628 72.2208L7.76245 89.2969H82.2374Z" fill="#BAC2D3"/>
<path d="M47.1354 58.8094H40.2616L38.9524 61.8616L42.8976 66.8826L40.604 77.8922L44.9965 87.409L49.9176 77.1729L47.8561 66.6773L50.98 61.541L47.1354 58.8094Z" fill="#27AE60"/>
<path d="M80.9022 72.2208C80.6847 69.4376 79.7332 66.7618 78.1447 64.4661C76.5561 62.1704 74.3873 60.3369 71.8593 59.1525L58.7812 53.0241C57.7146 59.0977 55.1819 64.6636 52.4299 70.1452C51.1537 72.6877 49.9577 75.221 48.832 77.8282C48.2041 79.2731 45 87.7156 45 87.7156C45 87.7156 39.8053 74.7851 38.8596 72.334C37.5778 69.0096 36.5913 65.5502 34.8925 62.4052C34.6014 61.8659 34.2942 61.3357 33.9785 60.8091C31.0886 59.6742 29.6029 57.2231 29.6578 53.756L18.1406 59.1525C15.6123 60.3367 13.4432 62.1701 11.8544 64.4658C10.2656 66.7615 9.31392 69.4374 9.09628 72.2208L7.76245 89.2969H82.2374L80.9022 72.2208Z" fill="#707583"/>
<path d="M80.9022 72.2208C80.6847 69.4376 79.7332 66.7618 78.1447 64.4661C76.5561 62.1704 74.3873 60.3369 71.8593 59.1525L58.7812 53.0241C57.7146 59.0977 55.1819 64.6636 52.4299 70.1452C51.1537 72.6877 49.9577 75.221 48.832 77.8282C48.2041 79.2731 45 87.7156 45 87.7156C45 87.7156 39.8053 74.7851 38.8596 72.334C37.5778 69.0096 36.5913 65.5502 34.8925 62.4052C34.6014 61.8659 34.2942 61.3357 33.9785 60.8091C31.0886 59.6742 29.6029 57.2231 29.6578 53.756L18.1406 59.1525C15.6123 60.3367 13.4432 62.1701 11.8544 64.4658C10.2656 66.7615 9.31392 69.4374 9.09628 72.2208L7.76245 89.2969H82.2374L80.9022 72.2208Z" fill="#384868"/>
<path d="M82.2374 89.2969H72.1546L70.8187 72.218C70.599 69.4351 69.6458 66.7601 68.0563 64.4653C66.4667 62.1705 64.2975 60.3378 61.7694 59.1539L57.7827 57.2836C58.1892 55.882 58.5201 54.4597 58.7741 53.0227L71.8593 59.1539C74.3865 60.3382 76.5546 62.1711 78.143 64.4659C79.7314 66.7608 80.6832 69.4356 80.9015 72.218L82.2374 89.2969Z" fill="#2F3A5A"/>
<path d="M64.9331 34.431C65.6795 31.2425 64.8382 28.3192 63.0541 27.9016C61.27 27.484 59.2187 29.7302 58.4723 32.9186C57.7259 36.1071 58.5672 39.0304 60.3513 39.4481C62.1354 39.8657 64.1867 37.6195 64.9331 34.431Z" fill="#E2B48A"/>
<path d="M29.5405 39.4735C31.3246 39.0559 32.1658 36.1325 31.4194 32.9441C30.6731 29.7556 28.6217 27.5094 26.8376 27.927C25.0535 28.3447 24.2122 31.268 24.9586 34.4565C25.705 37.6449 27.7564 39.8911 29.5405 39.4735Z" fill="#E2B48A"/>
<path d="M44.9318 50.4429C54.1852 50.4429 61.6865 40.1039 61.6865 27.3502C61.6865 14.5964 54.1852 4.25742 44.9318 4.25742C35.6784 4.25742 28.177 14.5964 28.177 27.3502C28.177 40.1039 35.6784 50.4429 44.9318 50.4429Z" fill="#F0C191"/>
<path d="M60.6355 35.3166C60.6355 35.3166 66.5523 24.7451 65.2705 16.361C63.9887 7.97695 58.3405 5.33039 54.9844 5.33039C54.9844 5.33039 50.4549 -1.37672 39.2619 1.35914C28.0688 4.095 23.5681 16.3863 25.6859 24.1404C27.8037 31.8944 29.2156 35.4565 29.2156 35.4565C29.2156 35.4565 27.8037 25.5424 29.3921 20.0686C30.9805 14.5948 35.7462 10.2727 37.5997 11.7717C39.4531 13.2708 51.2783 12.7737 53.2196 9.4514C55.77 11.3203 57.4771 14.1227 57.9678 17.2462C58.6006 22.2764 61.4265 25.3652 61.1621 28.9828C60.8977 32.6004 60.6355 35.3166 60.6355 35.3166Z" fill="#2F3A5A"/>
<path d="M55.0652 48.9255L45 58.7609L53.9845 64.935L58.1892 52.7351L55.0652 48.9255Z" fill="#D9E2E9"/>
<path d="M31.8108 52.7351L36.3656 64.6502L45 58.7609L34.9348 48.9255L31.8108 52.7351Z" fill="#D9E2E9"/>
<path d="M60.809 53.9761L55.0652 48.9255L55.0532 48.9136C55.0532 48.9136 54.9485 64.0027 44.9986 87.409C35.0465 64.0027 34.9439 48.9136 34.9439 48.9136L34.9319 48.9255L29.1888 53.9761L28.177 62.5141L32.9393 61.7526L29.3681 67.1667C31.4388 72.2109 45 87.9609 45 87.9609C47.134 85.6048 58.8811 72.0049 60.7099 67.5471L57.0572 61.7526L62.3875 61.9045L60.809 53.9761Z" fill="#43567C"/>
</svg>
