<svg width="91" height="89" viewBox="0 0 91 89" fill="none" xmlns="http://www.w3.org/2000/svg">
<g clip-path="url(#clip0)">
<path d="M47.3939 0C46.348 0 45.5 0.829315 45.5 1.85224V42.6003C45.5 43.6233 46.348 44.4526 47.3939 44.4526H89.0576C90.1035 44.4526 90.9515 43.6233 90.9515 42.6003C90.9242 19.0838 71.4387 0.0265673 47.3939 0Z" fill="#A02C27"/>
<path d="M67.8269 78.5067L41.7114 45.6712V5.55656C41.7114 4.53363 40.8634 3.70432 39.8175 3.70432C17.8873 3.70432 0.0476074 22.8152 0.0476074 46.3045C0.0747717 69.8211 19.5603 88.8783 43.6051 88.9049C52.3355 89.5684 60.968 86.743 67.5315 81.0738C68.3246 80.4376 68.4556 79.2995 67.8269 78.5067Z" fill="#27AE60"/>
<path d="M89.0575 48.1567H51.1814C50.1355 48.1569 49.2877 48.9864 49.2881 50.0093C49.2881 50.4325 49.4363 50.8428 49.7082 51.172L74.3277 80.981C74.6579 81.3818 75.1437 81.6299 75.6685 81.6664H75.8011C76.2803 81.6667 76.742 81.4893 77.0928 81.17C85.915 73.101 90.9311 61.8222 90.9517 50.0088C90.9514 48.9861 90.1036 48.1567 89.0575 48.1567Z" fill="#177740"/>
</g>
<defs>
<clipPath id="clip0">
<rect width="91" height="89" fill="white"/>
</clipPath>
</defs>
</svg>
